<svg style="position: absolute; width: 0; height: 0; overflow: hidden;" aria-hidden="true" version="1.1" xmlns="http://www.w3.org/2000/svg" xmlns:xlink="http://www.w3.org/1999/xlink">
    <style>
        .default-palette, .palette0 {
            color: #dadada;
            --color0: currentColor;
        }
    </style>
    <defs>
        <symbol id="facebook" viewBox="0 0 24 24" fill="none">
            <path fill="currentColor" d="M22 12.3038c0-5.5566-4.4771-10.0611-10-10.0611-5.5228 0-10 4.5045-10 10.0611 0 5.0217 3.6568 9.1841 8.4375 9.9389v-7.0306H7.8984l0-2.9083h2.5391v-2.2166c0-2.5216 1.493-3.9144 3.7771-3.9144 1.0942 0 2.2385 0.1965 2.2385 0.1965v2.476l-1.2609 0c-1.2422 0-1.6297 0.7756-1.6297 1.5713v1.8872h2.7734l-0.4433 2.9083h-2.3301v7.0306C18.3432 21.4879 22 17.3257 22 12.3038z" />
        </symbol>
        <symbol id="company-logo" viewBox="0 0 112 48" fill="currentColor">
            <path d="M19.7082 28.4461c-0.0447-0.0877-0.0788-0.1553-0.1137-0.2223-0.4306-0.8264-1.4681-1.3631-2.3894-1.2362-0.7911 0.109-1.4502 0.7667-1.6818 1.6953-0.2497 1.0013-0.0694 1.9666 0.2908 2.9052 0.5874 1.5305 1.5178 2.8395 2.6637 3.9979 0.7926 0.8011 1.4246 0.7876 2.2047-0.0274 1.0829-1.1317 1.9618-2.4022 2.5715-3.8504 0.3595-0.8531 0.6241-1.7319 0.6642-2.665 0.0291-0.6738-0.0578-1.3228-0.4413-1.9012-0.4871-0.7344-1.2884-0.9508-2.0764-0.563-0.49 0.241-0.8773 0.601-1.183 1.0475-0.1753 0.256-0.3285 0.527-0.5093 0.8196zM34.9607 32.7484c-0.018 1.262-0.3024 2.4643-0.8835 3.5813-0.9861 1.8953-2.4127 3.3643-4.3226 4.349-1.8827 0.9707-3.812 1.0817-5.7834 0.309-0.8002-0.3138-1.5981-0.6378-2.3784-0.9974-1.4176-0.6536-2.8293-0.6474-4.2791-0.1045-1.0182 0.3814-2.0517 0.7291-3.0958 1.0311-1.0813 0.3129-2.1944 0.4272-3.3227 0.2985-0.9753-0.1113-1.7993-0.5433-2.5133-1.1971-0.9106-0.8337-1.6392-1.8072-2.0989-2.9553-0.5893-1.4713-0.4477-2.8907 0.4102-4.2313 0.6716-1.0497 1.5783-1.8871 2.4568-2.7535 0.6386-0.6297 1.2637-1.2764 1.8519-1.9528 0.6786-0.7808 1.0839-1.7229 1.4198-2.6909 0.3118-0.8981 0.595-1.806 0.9027-2.7055 0.2223-0.6499 0.6303-1.1905 1.0334-1.7384 0.9705-1.3189 2.3548-1.896 3.8833-2.2357 1.8119-0.4027 3.3909 0.1166 4.7383 1.3084 0.829 0.7331 1.5467 1.592 2.3184 2.3906 1.3144 1.3602 2.7087 2.6306 4.2707 3.7036 0.7776 0.5342 1.5936 1.0129 2.3648 1.5556 1.1033 0.7767 2.0342 1.719 2.6022 2.9699 0.2976 0.6553 0.4151 1.3497 0.4251 2.0654z" />
            <path d="M17.1701 14.0365c3e-3 1.0102-0.176 2.101-0.6547 3.1259-0.5123 1.0961-1.2535 1.9632-2.4723 2.3005-1.0029 0.2778-1.9288 0.0541-2.792-0.4851-1.1355-0.7091-1.9034-1.7382-2.4746-2.9218-0.8294-1.7189-1.149-3.5372-0.979-5.4375 0.1004-1.1226 0.4178-2.1718 1.045-3.1262 1.0816-1.6459 3.0256-2.1111 4.7161-1.1095 1.0967 0.6498 1.865 1.5985 2.4491 2.7066 0.7961 1.5101 1.1753 3.1252 1.1623 4.9471z" />
            <path d="M28.9749 11.0268c18e-4 2.0583-0.3781 3.7853-1.3144 5.3654-0.5234 0.8836-1.193 1.6357-2.1187 2.1194-1.3531 0.7071-2.8427 0.4481-3.905-0.6577-0.8409-0.8753-1.2971-1.9408-1.5416-3.1069-0.4222-2.0159-0.2043-3.9852 0.5096-5.9006 0.3455-0.927 0.8503-1.7754 1.5758-2.4597 0.6684-0.6307 1.4301-1.1246 2.3792-1.2034 1.2074-0.1003 2.1554 0.4114 2.9133 1.3158 0.7812 0.9323 1.1713 2.0378 1.3649 3.2179 0.0835 0.5088 0.1086 1.0272 0.1369 1.3098z" />
            <path d="M0.6665 20.9489c0.0167-0.9193 0.1922-1.7835 0.7387-2.5332 0.7141-0.98 1.714-1.3414 2.8953-1.2674 1.1952 0.0749 2.2127 0.5913 3.1262 1.3196 1.6271 1.2975 2.7033 2.9539 3.1314 5.0034 0.1895 0.9066 0.2036 1.8218-0.1136 2.7049-0.5452 1.5184-1.7892 2.3026-3.4103 2.177-1.0087-0.0781-1.8964-0.4814-2.711-1.0555-1.7559-1.2377-2.8864-2.9201-3.4588-4.9766-0.1229-0.4415-0.1349-0.914-0.1979-1.3722z" />
            <path d="M37.6099 18.0813c-0.2721 2.8553-1.4337 5.0624-3.6863 6.6521-0.6256 0.4415-1.3292 0.697-2.0976 0.7749-1.2995 0.1318-2.481-0.5998-2.9696-1.8516-0.4293-1.1005-0.4043-2.2266-0.1342-3.347 0.5197-2.1567 1.679-3.8988 3.5008-5.176 0.8065-0.5654 1.7215-0.7962 2.7053-0.7141 1.1438 0.0954 2.1107 0.9536 2.445 2.2156 0.1352 0.5103 0.1737 1.0459 0.2366 1.4461z" />
            <path d="M91.1653 27.5516h2.6285l-3.4655 4.1931 3.7706 4.5529h-2.7067l-3.5751-4.4356v4.4356h-2.3859v-8.746h2.3859v4.2479z" />
            <path d="M83.7808 31.909c0 0.7301-0.0991 1.3768-0.2973 1.9401-0.1929 0.5632-0.4772 1.0404-0.8527 1.4316-0.3703 0.3859-0.8188 0.678-1.3455 0.8761-0.5215 0.1982-1.1109 0.2973-1.768 0.2973-0.6154 0-1.1812-0.0991-1.6975-0.2973-0.5111-0.1981-0.9571-0.4902-1.3378-0.8761-0.3755-0.3912-0.6675-0.8684-0.8761-1.4316-0.2034-0.5633-0.3051-1.21-0.3051-1.9401 0-0.97 0.1721-1.7914 0.5163-2.4642s0.8344-1.1839 1.4707-1.5333 1.3951-0.5241 2.2765-0.5241c0.8187 0 1.5437 0.1747 2.1747 0.5241 0.6363 0.3494 1.1343 0.8605 1.4942 1.5333 0.3651 0.6728 0.5476 1.4942 0.5476 2.4642zM77.7337 31.909c0 0.5737 0.0626 1.0561 0.1877 1.4472 0.1252 0.3912 0.3208 0.6858 0.5868 0.884 0.2659 0.1982 0.6128 0.2973 1.0404 0.2973 0.4224 0 0.764-0.0991 1.0248-0.2973 0.266-0.1982 0.4589-0.4928 0.5789-0.884 0.1252-0.3911 0.1877-0.8735 0.1877-1.4472 0-0.5789-0.0625-1.0587-0.1877-1.4394-0.12-0.3859-0.3129-0.6754-0.5789-0.8683-0.266-0.193-0.6128-0.2895-1.0404-0.2895-0.6311 0-1.09 0.2164-1.3769 0.6493-0.2816 0.4329-0.4224 1.0822-0.4224 1.9479z" />
            <path d="M73.6492 27.5516v8.746h-2.3938v-6.9545h-3.1682v6.9545h-2.386v-8.746z" />
            <path d="M59.9191 27.3717c1.1734 0 2.0731 0.2556 2.6989 0.7667s0.9387 1.2881 0.9387 2.3312v5.828h-1.6662l-0.4616-1.1891h-0.0626c-0.2503 0.313-0.5058 0.5685-0.7666 0.7667s-0.5606 0.3442-0.8996 0.4381c-0.339 0.0938-0.751 0.1408-1.2361 0.1408-0.5163 0-0.9804-0.0991-1.3924-0.2973-0.4068-0.1982-0.7276-0.5006-0.9622-0.9074-0.2347-0.412-0.3521-0.9336-0.3521-1.5646 0-0.9283 0.326-1.6115 0.9779-2.0496 0.6519-0.4433 1.6298-0.6884 2.9336-0.7354l1.5176-0.0469v-0.3833c0-0.459-0.1199-0.7953-0.3598-1.0092-0.2399-0.2138-0.5737-0.3207-1.0014-0.3207-0.4224 0-0.837 0.06-1.2438 0.1799-0.4068 0.12-0.8136 0.2712-1.2204 0.4537l-0.7901-1.6115c0.4642-0.2451 0.9831-0.4381 1.5568-0.5789 0.5789-0.1408 1.176-0.2112 1.7914-0.2112zM61.1864 32.2454l-0.9231 0.0313c-0.7719 0.0208-1.309 0.159-1.6115 0.4146-0.2973 0.2555-0.4459 0.5919-0.4459 1.0091 0 0.3651 0.1069 0.6259 0.3207 0.7823 0.2139 0.1513 0.4929 0.2269 0.8371 0.2269 0.5111 0 0.9413-0.1513 1.2907-0.4537 0.3547-0.3025 0.532-0.7328 0.532-1.2908z" />
            <path d="M53.9576 36.2977h-2.4173v-9.4188h-2.8006c-0.0625 0.4902-0.1303 1.0248-0.2034 1.6037-0.073 0.5789-0.1486 1.163-0.2268 1.7523-0.0782 0.5894-0.1617 1.15-0.2503 1.682-0.0835 0.5319-0.1669 0.9987-0.2504 1.4003-0.1356 0.6675-0.3207 1.236-0.5554 1.7053-0.2295 0.4642-0.545 0.8188-0.9466 1.064-0.3963 0.2451-0.9153 0.3676-1.5567 0.3676-0.2139 0-0.4199-0.0156-0.618-0.0469-0.193-0.0313-0.3729-0.073-0.5398-0.1252v-1.987c0.1356 0.0469 0.2712 0.0861 0.4068 0.1174 0.1356 0.026 0.2842 0.0391 0.4459 0.0391 0.2086 0 0.3807-0.0678 0.5163-0.2034 0.1408-0.1408 0.266-0.3781 0.3755-0.7119 0.1095-0.339 0.219-0.8058 0.3285-1.4003 0.047-0.2608 0.1096-0.6284 0.1878-1.103 0.0782-0.4798 0.1669-1.0405 0.266-1.682 0.0991-0.6466 0.2008-1.3507 0.3051-2.1121 0.1095-0.7615 0.2138-1.5542 0.3129-2.3782h7.2205z" />
            <path d="M107.695 12.7243c1.174 0 2.074 0.2556 2.699 0.7667 0.626 0.5111 0.939 1.2881 0.939 2.3312v5.828h-1.666l-0.462-1.189h-0.062c-0.251 0.3129-0.506 0.5684-0.767 0.7666s-0.561 0.3442-0.9 0.4381-0.751 0.1408-1.236 0.1408c-0.516 0-0.98-0.0991-1.392-0.2973-0.407-0.1981-0.728-0.5006-0.962-0.9074-0.235-0.412-0.352-0.9336-0.352-1.5646 0-0.9283 0.326-1.6115 0.978-2.0496 0.651-0.4433 1.629-0.6884 2.933-0.7353l1.518-0.047v-0.3833c0-0.4589-0.12-0.7953-0.36-1.0092-0.24-0.2138-0.574-0.3207-1.001-0.3207-0.423 0-0.837 0.06-1.244 0.1799-0.407 0.12-0.814 0.2712-1.221 0.4538l-0.79-1.6116c0.464-0.2451 0.983-0.438 1.557-0.5788 0.579-0.1409 1.176-0.2113 1.791-0.2113zM108.963 17.598l-0.923 0.0313c-0.772 0.0208-1.309 0.159-1.612 0.4146-0.297 0.2555-0.446 0.5919-0.446 1.0091 0 0.3651 0.107 0.6259 0.321 0.7823 0.214 0.1513 0.493 0.2269 0.837 0.2269 0.511 0 0.941-0.1512 1.291-0.4537 0.354-0.3025 0.532-0.7328 0.532-1.2908z" />
            <path d="M100.247 12.9043h2.629l-3.4657 4.193 3.7707 4.5529h-2.707l-3.5748-4.4355v4.4355h-2.386v-8.7459h2.386v4.2478z" />
            <path d="M86.6125 12.9043v3.3638h3.3326v-3.3638h2.386v8.7459h-2.386v-3.6063h-3.3326v3.6063h-2.3859v-8.7459z" />
            <path d="M75.3078 12.9043v3.4577c0 0.1773-79e-4 0.4015-0.0235 0.6727-0.0104 0.266-0.0261 0.5372-0.047 0.8136-0.0208 0.2764-0.0417 0.5241-0.0625 0.7432-0.0209 0.219-0.0365 0.3677-0.047 0.4459l4.0366-6.1331h2.871v8.7459h-2.3077v-3.489c0-0.2868 0.0104-0.6023 0.0313-0.9465 0.0208-0.3495 0.0443-0.678 0.0704-0.9857s0.0443-0.5398 0.0547-0.6963l-4.0209 6.1175H73v-8.7459z" />
            <path d="M71.6861 14.6957h-2.8632v6.9545h-2.386v-6.9545h-2.871v-1.7914h8.1202z" />
            <path d="M58.6681 12.7243c1.1735 0 2.0731 0.2556 2.6989 0.7667s0.9388 1.2881 0.9388 2.3312v5.828h-1.6663l-0.4616-1.189h-0.0625c-0.2504 0.3129-0.5059 0.5684-0.7667 0.7666s-0.5606 0.3442-0.8996 0.4381-0.751 0.1408-1.236 0.1408c-0.5163 0-0.9805-0.0991-1.3925-0.2973-0.4068-0.1981-0.7275-0.5006-0.9622-0.9074-0.2347-0.412-0.3521-0.9336-0.3521-1.5646 0-0.9283 0.326-1.6115 0.9779-2.0496 0.6519-0.4433 1.6298-0.6884 2.9336-0.7353l1.5176-0.047v-0.3833c0-0.4589-0.1199-0.7953-0.3598-1.0092-0.2399-0.2138-0.5737-0.3207-1.0014-0.3207-0.4224 0-0.837 0.06-1.2438 0.1799-0.4068 0.12-0.8136 0.2712-1.2204 0.4538l-0.7901-1.6116c0.4642-0.2451 0.9831-0.438 1.5568-0.5788 0.5789-0.1409 1.176-0.2113 1.7914-0.2113zM59.9354 17.598l-0.9231 0.0313c-0.7718 0.0208-1.309 0.159-1.6115 0.4146-0.2973 0.2555-0.4459 0.5919-0.4459 1.0091 0 0.3651 0.1069 0.6259 0.3207 0.7823 0.2139 0.1513 0.4929 0.2269 0.8371 0.2269 0.5111 0 0.9414-0.1512 1.2908-0.4537 0.3546-0.3025 0.5319-0.7328 0.5319-1.2908z" />
            <path d="M54.1548 21.6503h-2.7693l-2.6598-4.3261-2.6598 4.3261h-2.5971l3.7941-5.8985-3.5516-5.5386h2.6754l2.4642 4.1149 2.4173-4.1149h2.6128l-3.5907 5.6716z" />
        </symbol>
        <symbol id="close" viewBox="0 0 24 24" fill="none">
            <path stroke="currentColor" fill="currentColor" d="M17.5996 5.925c0.1643 0 0.2663 0.0485 0.3467 0.1289 0.0802 0.0803 0.1288 0.1818 0.1289 0.3457 0 0.1642-0.0486 0.2663-0.1289 0.3467l-5.2539 5.2539 0.3535 0.3535 4.9004 4.8994c0.0804 0.0804 0.1289 0.1825 0.1289 0.3467 0 0.1643-0.0485 0.2663-0.1289 0.3467s-0.1824 0.1289-0.3467 0.1289c-0.1641-1e-4-0.2663-0.0486-0.3467-0.1289l-4.8994-4.9004L12 12.6926 6.7461 17.9465c-0.0804 0.0803-0.1825 0.1289-0.3467 0.1289-0.1639-1e-4-0.2654-0.0487-0.3457-0.1289-0.0804-0.0804-0.1289-0.1824-0.1289-0.3467 0-0.1642 0.0485-0.2663 0.1289-0.3467l5.2529-5.2529-0.3535-0.3535-4.8994-4.9004C5.9733 6.6659 5.9248 6.5639 5.9248 6.3996c1e-4-0.164 0.0486-0.2654 0.1289-0.3457S6.2354 5.9251 6.3994 5.925c0.1643 0 0.2663 0.0485 0.3467 0.1289l4.9004 4.8994L12 11.3068l5.2529-5.2529c0.0804-0.0804 0.1826-0.1289 0.3467-0.1289z" />
        </symbol>
        <symbol id="arrow_forward" viewBox="0 0 24 24" fill="none">
            <path stroke="currentColor" fill="currentColor" d="M11.9951 4.6895c0.071 6e-4 0.1328 0.0173 0.1944 0.0605l0.0615 0.0527 6.9482 6.9483c0.0532 0.0541 0.0789 0.0963 0.0908 0.125v1e-3c0.0152 0.0363 0.0235 0.0764 0.0235 0.124-1e-4 0.0476-87e-4 0.0867-0.0235 0.122v1e-3c-0.0118 0.0285-0.0373 0.0708-0.0908 0.125l-6.9541 6.9483c-0.0913 0.0902-0.1699 0.1162-0.2529 0.1162-0.0807-1e-4-0.1529-0.0246-0.2363-0.1104l-49e-4-49e-4-0.0518-0.0605c-0.0421-0.0596-0.0566-0.1177-0.0566-0.1826 0-0.0647 0.0147-0.1223 0.0566-0.1817l0.0518-0.0605 6.3613-6.3613H4.7021c-0.1221-1e-4-0.1943-0.0352-0.2548-0.0957h-1e-3C4.3854 12.195 4.3506 12.122 4.3506 12s0.0348-0.195 0.0957-0.2559h1e-3c0.0605-0.0605 0.1327-0.0956 0.2548-0.0957h13.4102L11.7568 5.293c-0.0613-0.0614-0.0931-0.1198-0.1054-0.1846l-59e-4-0.0674c-9e-4-0.0899 0.0253-0.1635 0.1055-0.2441l1e-3-1e-3c0.0801-0.0806 0.1535-0.1072 0.2431-0.1065z" />
        </symbol>
        <symbol id="arrow_back" viewBox="0 0 24 24" fill="none">
            <path stroke="currentColor" fill="currentColor" d="M12.0078 4.6865c0.0856 1e-4 0.159 0.0263 0.2412 0.1084 0.0823 0.086 0.1084 0.1631 0.1084 0.249-1e-4 0.0868-0.0266 0.1608-0.1084 0.2431l-6.3613 6.3613h13.4102c0.1215 1e-4 0.1966 0.0354 0.2607 0.0987 0.0621 0.0613 0.0967 0.133 0.0967 0.2529s-0.0346 0.1916-0.0967 0.2529c-0.0641 0.0633-0.1392 0.0986-0.2607 0.0987H5.8877l6.3555 6.3554v-9e-4c0.0822 0.0824 0.1105 0.1592 0.1113 0.2509v1e-3c5e-4 0.0665-0.0141 0.1249-0.0557 0.1846l-0.0517 0.0615c-0.08 0.081-0.1532 0.1072-0.2422 0.1064-0.0945-9e-4-0.1728-0.0309-0.2559-0.1132L4.8008 12.249c-0.0532-0.0541-0.0789-0.0963-0.0908-0.125l0-1e-3c-0.0152-0.0363-0.0235-0.0764-0.0235-0.124 0-0.0476 87e-4-0.0867 0.0235-0.122l0-1e-3c0.0118-0.0285 0.0373-0.0709 0.0908-0.125l6.9502-6.9502c0.0904-0.0872 0.1701-0.1143 0.2568-0.1143z" />
        </symbol>
        <symbol id="add" viewBox="0 0 24 24" fill="none">
            <path fill="currentColor" d="M11.1483 12.8518h-5.446c-0.2405 0-0.4425-0.0824-0.6062-0.247-0.1637-0.1645-0.2455-0.3676-0.2455-0.6093 0-0.2415 0.0818-0.4431 0.2455-0.6047 0.1637-0.1617 0.3657-0.2425 0.6062-0.2425h5.446v-5.446c0-0.24 0.0824-0.4429 0.247-0.6088 0.1645-0.166 0.3676-0.249 0.6093-0.249 0.2415 0 0.4431 0.083 0.6047 0.249 0.1617 0.1658 0.2425 0.3688 0.2425 0.6088v5.446h5.446c0.24 0 0.443 0.0823 0.6088 0.247 0.166 0.1645 0.249 0.3675 0.249 0.6092 0 0.2415-0.083 0.4431-0.249 0.6048-0.1658 0.1616-0.3688 0.2425-0.6088 0.2425h-5.446v5.446c0 0.2405-0.0823 0.4425-0.247 0.6062-0.1645 0.1637-0.3675 0.2455-0.6092 0.2455-0.2415 0-0.4431-0.0818-0.6048-0.2455-0.1616-0.1637-0.2425-0.3657-0.2425-0.6062z" />
        </symbol>
        <symbol id="menu" viewBox="0 0 24 24" fill="none">
            <path fill="currentColor" d="M3.7023 18.2212c-0.2405 0-0.4426-0.0822-0.6062-0.2467s-0.2455-0.3696-0.2455-0.6153c0-0.2416 0.0818-0.4433 0.2455-0.605 0.1636-0.1615 0.3657-0.2422 0.6062-0.2422h16.5955c0.2405 0 0.4436 0.0822 0.6093 0.2467s0.2485 0.3676 0.2485 0.6093c0 0.2457-0.0828 0.4492-0.2485 0.6107-0.1657 0.1617-0.3688 0.2425-0.6093 0.2425zM3.7023 12.8517c-0.2405 0-0.4426-0.0823-0.6062-0.247-0.1637-0.1645-0.2455-0.3675-0.2455-0.6092 0-0.2415 0.0818-0.4431 0.2455-0.6048 0.1636-0.1616 0.3657-0.2425 0.6062-0.2425h16.5955c0.2405 0 0.4436 0.0824 0.6093 0.247 0.1657 0.1645 0.2485 0.3676 0.2485 0.6093 0 0.2415-0.0828 0.4431-0.2485 0.6047-0.1657 0.1617-0.3688 0.2425-0.6093 0.2425zM3.7023 7.488c-0.2405 0-0.4426-0.0823-0.6062-0.2468S2.8506 6.8717 2.8506 6.626c0-0.2417 0.0818-0.4432 0.2455-0.6048 0.1636-0.1617 0.3657-0.2426 0.6062-0.2426l16.5955 0c0.2405 0 0.4436 0.0823 0.6093 0.2468s0.2485 0.3676 0.2485 0.6093c0 0.2456-0.0828 0.4493-0.2485 0.6109-0.1657 0.1615-0.3688 0.2422-0.6093 0.2422z" />
        </symbol>
        <symbol id="instagram" viewBox="0 0 24 24" fill="currentColor">
            <path d="M11.9988 4.6209c2.4044 0 2.689 0.0107 3.6344 0.0529 0.8791 0.0388 1.3532 0.1861 1.6698 0.3093 0.4185 0.162 0.7205 0.3588 1.0332 0.6715 0.3166 0.3166 0.5096 0.6152 0.6749 1.0337 0.1232 0.3166 0.2705 0.7941 0.3093 1.6698 0.0422 0.9494 0.0529 1.234 0.0529 3.635 0 2.401-0.0107 2.6889-0.0529 3.6349-0.0388 0.8791-0.1861 1.3532-0.3093 1.6699-0.162 0.4184-0.3583 0.7204-0.6715 1.0331-0.3167 0.3167-0.6153 0.5096-1.0332 0.675-0.3166 0.1231-0.7947 0.2705-1.6698 0.3093-0.9494 0.0422-1.234 0.0529-3.635 0.0529-2.401 0-2.6889-0.0107-3.6349-0.0529-0.8791-0.0388-1.3532-0.1862-1.6699-0.3093-0.4184-0.162-0.7205-0.3583-1.0337-0.6716-0.3167-0.3166-0.5096-0.6153-0.6749-1.0332-0.1232-0.3166-0.2706-0.7947-0.3094-1.6698-0.0421-0.9494-0.0528-1.234-0.0528-3.635 0-2.4009 0.0107-2.6889 0.0528-3.6349 0.0389-0.8791 0.1862-1.3532 0.3094-1.6698 0.162-0.4185 0.3588-0.7205 0.6715-1.0338 0.3167-0.3166 0.6153-0.5095 1.0337-0.6749 0.3167-0.1232 0.7942-0.2705 1.6699-0.3093 0.9454-0.0422 1.2306-0.0529 3.6349-0.0529zM11.9988 3.0006c-2.4432 0-2.7486 0.0107-3.7086 0.0528-0.9561 0.0422-1.6136 0.1969-2.1828 0.4185-0.5939 0.2317-1.0967 0.5376-1.5956 1.0405C4.009 5.0118 3.703 5.514 3.4713 6.1046 3.2497 6.6777 3.0951 7.3312 3.0529 8.2874 3.0107 9.2508 3 9.5562 3 11.9994c0 2.4431 0.0107 2.7485 0.0529 3.7086 0.0421 0.9561 0.1968 1.6136 0.4184 2.1828 0.2323 0.5939 0.5377 1.0967 1.0405 1.5956 0.4989 0.4988 1.0017 0.8087 1.5922 1.0371 0.5731 0.2216 1.2267 0.3762 2.1828 0.4184 0.9595 0.0422 1.2654 0.0529 3.7086 0.0529 2.4432 0 2.7492-0.0107 3.7087-0.0529 0.9561-0.0422 1.6136-0.1968 2.1827-0.4184 0.5906-0.2284 1.0934-0.5377 1.5923-1.0371 0.4988-0.4995 0.8087-1.0017 1.0371-1.5923 0.2216-0.5731 0.3762-1.2266 0.4184-2.1827 0.0422-0.9595 0.0529-1.2655 0.0529-3.7087 0-2.4431-0.0107-2.7485-0.0529-3.7086-0.0422-0.9561-0.1968-1.6136-0.4184-2.1828-0.2216-0.5978-0.5276-1.1001-1.0298-1.5995-0.4989-0.4989-1.0017-0.8088-1.5923-1.0371-0.5731-0.2216-1.2266-0.3763-2.1827-0.4185C14.7485 3.0107 14.4425 3 11.9994 3z" />
            <path d="M11.9976 7.3767c-2.5518 0-4.6226 2.0703-4.6226 4.6226s2.0703 4.6226 4.6226 4.6226c2.5523 0 4.6225-2.0703 4.6225-4.6226 0-2.5517-2.0702-4.6226-4.6225-4.6226zM11.9976 14.9976c-1.6558 0-2.9983-1.3425-2.9983-2.9983s1.3425-2.9983 2.9983-2.9983c1.6557 0 2.9983 1.3425 2.9983 2.9983s-1.3426 2.9983-2.9983 2.9983z" />
            <path d="M17.8812 7.194c0 0.5962-0.4831 1.0793-1.0793 1.0793-0.5961 0-1.0792-0.4831-1.0792-1.0793s0.4831-1.0792 1.0792-1.0792c0.5962-1e-4 1.0793 0.4831 1.0793 1.0792z" />
        </symbol>
    </defs>
</svg>